<svg width="65" height="64" viewBox="0 0 65 64" fill="none" xmlns="http://www.w3.org/2000/svg">
<path d="M24.3 48C37.5548 48 48.3 37.2548 48.3 24C48.3 10.7452 37.5548 0 24.3 0C11.0452 0 0.299988 10.7452 0.299988 24C0.299988 37.2548 11.0452 48 24.3 48Z" fill="#116EBB" fill-opacity="0.21"/>
<path d="M54.7 32C54.7 44.4 44.7 54.4 32.3 54.4V57.6C46.4 57.6 57.9 46.1 57.9 32H54.7ZM32.3 54.4C20 54.4 9.90001 44.4 9.90001 32H6.70001C6.70001 46.1 18.2 57.6 32.3 57.6V54.4ZM9.90001 32C9.90001 19.6 19.9 9.60002 32.3 9.60002V6.40002C18.2 6.40002 6.70001 17.9 6.70001 32H9.90001ZM32.3 9.60002C44.7 9.60002 54.7 19.6 54.7 32H57.9C57.9 17.9 46.4 6.40002 32.3 6.40002V9.60002ZM41.4 32C41.4 37 37.3 41.1 32.3 41.1V44.3C39.1 44.3 44.6 38.8 44.6 32H41.4ZM32.3 41.1C27.3 41.1 23.2 37 23.2 32H20C20 38.8 25.5 44.3 32.3 44.3V41.1ZM23.3 32C23.3 27 27.4 22.9 32.4 22.9V19.7C25.6 19.7 20.1 25.2 20.1 32H23.3ZM32.3 22.9C37.3 22.9 41.4 27 41.4 32H44.6C44.6 25.2 39.1 19.7 32.3 19.7V22.9ZM48.2 13.9L38.8 23.3L41.1 25.6L50.5 16.2L48.2 13.9ZM38.7 40.7L48.1 50.1L50.4 47.8L41 38.4L38.7 40.7ZM25.9 23.3L16.5 13.9L14.2 16.2L23.6 25.6L25.9 23.3ZM23.7 38.4L14.3 47.8L16.6 50.1L26 40.7L23.7 38.4Z" fill="url(#paint0_radial_88_8)"/>
<defs>
<radialGradient id="paint0_radial_88_8" cx="0" cy="0" r="1" gradientUnits="userSpaceOnUse" gradientTransform="translate(32.332 32) scale(25.6 25.6)">
<stop stop-color="#022D5C"/>
<stop offset="0.5" stop-color="#1283DF"/>
<stop offset="1" stop-color="#012B5C"/>
</radialGradient>
</defs>
</svg>
